<svg xmlns="http://www.w3.org/2000/svg" width="35" height="35" viewBox="0 0 35 35" fill="none">
  <g clip-path="url(#clip0_5354_3128)" filter="url(#filter0_d_5354_3128)">
    <path d="M11.9488 24L14.4159 19.7427L16.8834 15.5L19.3354 11.2427L19.7417 10.5678L19.9223 11.2427L20.6745 14.0458L19.8318 15.5L17.3647 19.7427L14.9126 24H17.8611L20.3285 19.7427L21.6073 17.5389L22.2089 19.7427L23.3523 24H26L24.8569 19.7427L23.7134 15.5L23.4126 14.4056L25.2481 11.2427H22.5699L22.4798 10.9276L21.547 7.44956L21.4268 7H18.8541L18.7939 7.08978L16.3867 11.2427L13.9195 15.5L11.4671 19.7427L9 24H11.9488Z" fill="url(#paint0_linear_5354_3128)"/>
  </g>
  <defs>
    <filter id="filter0_d_5354_3128" x="0.6" y="0.6" width="33.8" height="33.8" filterUnits="userSpaceOnUse" color-interpolation-filters="sRGB">
      <feFlood flood-opacity="0" result="BackgroundImageFix"/>
      <feColorMatrix in="SourceAlpha" type="matrix" values="0 0 0 0 0 0 0 0 0 0 0 0 0 0 0 0 0 0 127 0" result="hardAlpha"/>
      <feOffset dy="2"/>
      <feGaussianBlur stdDeviation="4.2"/>
      <feComposite in2="hardAlpha" operator="out"/>
      <feColorMatrix type="matrix" values="0 0 0 0 0.583681 0 0 0 0 0.499653 0 0 0 0 0.499653 0 0 0 0.25 0"/>
      <feBlend mode="normal" in2="BackgroundImageFix" result="effect1_dropShadow_5354_3128"/>
      <feBlend mode="normal" in="SourceGraphic" in2="effect1_dropShadow_5354_3128" result="shape"/>
    </filter>
    <linearGradient id="paint0_linear_5354_3128" x1="17.5" y1="7" x2="17.5" y2="24" gradientUnits="userSpaceOnUse">
      <stop stop-color="#9A9A9A"/>
      <stop offset="1" stop-color="white"/>
    </linearGradient>
    <clipPath id="clip0_5354_3128">
      <rect width="17" height="17" fill="white" transform="translate(9 7)"/>
    </clipPath>
  </defs>
</svg>