<svg xmlns="http://www.w3.org/2000/svg" width="18" height="18" viewBox="0 0 18 18" fill="none">
  <path fill-rule="evenodd" clip-rule="evenodd" d="M8.51956 3.2398C8.51956 2.44492 7.87444 1.7998 7.07956 1.7998H3.23956C2.44468 1.7998 1.79956 2.44492 1.79956 3.2398V7.0798C1.79956 7.87468 2.44468 8.5198 3.23956 8.5198H7.07956C7.87444 8.5198 8.51956 7.87468 8.51956 7.0798V3.2398ZM7.55956 3.2398V7.0798C7.55956 7.34476 7.34452 7.5598 7.07956 7.5598H3.23956C2.9746 7.5598 2.75956 7.34476 2.75956 7.0798V3.2398C2.75956 2.97484 2.9746 2.7598 3.23956 2.7598H7.07956C7.34452 2.7598 7.55956 2.97484 7.55956 3.2398ZM8.51956 10.9198C8.51956 10.1249 7.87444 9.4798 7.07956 9.4798H3.23956C2.44468 9.4798 1.79956 10.1249 1.79956 10.9198V14.7598C1.79956 15.5547 2.44468 16.1998 3.23956 16.1998H7.07956C7.87444 16.1998 8.51956 15.5547 8.51956 14.7598V10.9198ZM7.55956 10.9198V14.7598C7.55956 15.0248 7.34452 15.2398 7.07956 15.2398H3.23956C2.9746 15.2398 2.75956 15.0248 2.75956 14.7598V10.9198C2.75956 10.6548 2.9746 10.4398 3.23956 10.4398H7.07956C7.34452 10.4398 7.55956 10.6548 7.55956 10.9198ZM16.1996 3.2398C16.1996 2.44492 15.5544 1.7998 14.7596 1.7998H10.9196C10.1247 1.7998 9.47956 2.44492 9.47956 3.2398V7.0798C9.47956 7.87468 10.1247 8.5198 10.9196 8.5198H14.7596C15.5544 8.5198 16.1996 7.87468 16.1996 7.0798V3.2398ZM15.2396 3.2398V7.0798C15.2396 7.34476 15.0245 7.5598 14.7596 7.5598H10.9196C10.6546 7.5598 10.4396 7.34476 10.4396 7.0798V3.2398C10.4396 2.97484 10.6546 2.7598 10.9196 2.7598H14.7596C15.0245 2.7598 15.2396 2.97484 15.2396 3.2398ZM16.1996 10.9198C16.1996 10.1249 15.5544 9.4798 14.7596 9.4798H10.9196C10.1247 9.4798 9.47956 10.1249 9.47956 10.9198V14.7598C9.47956 15.5547 10.1247 16.1998 10.9196 16.1998H14.7596C15.5544 16.1998 16.1996 15.5547 16.1996 14.7598V10.9198ZM15.2396 10.9198V14.7598C15.2396 15.0248 15.0245 15.2398 14.7596 15.2398H10.9196C10.6546 15.2398 10.4396 15.0248 10.4396 14.7598V10.9198C10.4396 10.6548 10.6546 10.4398 10.9196 10.4398H14.7596C15.0245 10.4398 15.2396 10.6548 15.2396 10.9198Z" fill="white"/>
</svg>