<svg xmlns="http://www.w3.org/2000/svg" width="18" height="18" viewBox="0 0 18 18" fill="none">
  <path d="M15.0369 1.80029H10.7712C10.1285 1.80029 9.60742 2.32135 9.60742 2.9641V7.22982C9.60742 7.87258 10.1285 8.39363 10.7712 8.39363H15.0369C15.6797 8.39363 16.2008 7.87258 16.2008 7.22982V2.9641C16.2008 2.32135 15.6797 1.80029 15.0369 1.80029Z" fill="white"/>
  <path d="M7.23055 1.80029H2.96484C2.32208 1.80029 1.80103 2.32135 1.80103 2.9641V7.22982C1.80103 7.87258 2.32208 8.39363 2.96484 8.39363H7.23055C7.87331 8.39363 8.39436 7.87258 8.39436 7.22982V2.9641C8.39436 2.32135 7.87331 1.80029 7.23055 1.80029Z" fill="white"/>
  <path d="M15.0369 9.60693H10.7712C10.1285 9.60693 9.60742 10.128 9.60742 10.7707V15.0365C9.60742 15.6792 10.1285 16.2003 10.7712 16.2003H15.0369C15.6797 16.2003 16.2008 15.6792 16.2008 15.0365V10.7707C16.2008 10.128 15.6797 9.60693 15.0369 9.60693Z" fill="white"/>
  <path d="M7.23055 9.60693H2.96484C2.32208 9.60693 1.80103 10.128 1.80103 10.7707V15.0365C1.80103 15.6792 2.32208 16.2003 2.96484 16.2003H7.23055C7.87331 16.2003 8.39436 15.6792 8.39436 15.0365V10.7707C8.39436 10.128 7.87331 9.60693 7.23055 9.60693Z" fill="white"/>
</svg>