<svg xmlns="http://www.w3.org/2000/svg" width="16" height="16" viewBox="0 0 16 16" fill="none">
  <path d="M9.99967 2V4.66667C9.99967 4.84348 10.0699 5.01305 10.1949 5.13807C10.32 5.2631 10.4895 5.33333 10.6663 5.33333H13.333M9.99967 2H7.33301C6.97939 2 6.64025 2.14048 6.3902 2.39052C6.14015 2.64057 5.99967 2.97971 5.99967 3.33333V10C5.99967 10.3536 6.14015 10.6928 6.3902 10.9428C6.64025 11.1929 6.97939 11.3333 7.33301 11.3333H11.9997C12.3533 11.3333 12.6924 11.1929 12.9425 10.9428C13.1925 10.6928 13.333 10.3536 13.333 10V5.33333M9.99967 2L13.333 5.33333M10.6663 11.3333V12.6667C10.6663 13.0203 10.5259 13.3594 10.2758 13.6095C10.0258 13.8595 9.68663 14 9.33301 14H4.66634C4.31272 14 3.97358 13.8595 3.72353 13.6095C3.47348 13.3594 3.33301 13.0203 3.33301 12.6667V6C3.33301 5.64638 3.47348 5.30724 3.72353 5.05719C3.97358 4.80714 4.31272 4.66667 4.66634 4.66667H5.99967" stroke="#D2D2D5" stroke-linecap="round" stroke-linejoin="round"/>
</svg>