<svg xmlns="http://www.w3.org/2000/svg" width="14" height="10" viewBox="0 0 14 10" fill="none">
  <path d="M5.66667 5C5.66667 5.35362 5.80714 5.69276 6.05719 5.94281C6.30724 6.19286 6.64638 6.33333 7 6.33333C7.35362 6.33333 7.69276 6.19286 7.94281 5.94281C8.19286 5.69276 8.33333 5.35362 8.33333 5C8.33333 4.64638 8.19286 4.30724 7.94281 4.05719C7.69276 3.80714 7.35362 3.66667 7 3.66667C6.64638 3.66667 6.30724 3.80714 6.05719 4.05719C5.80714 4.30724 5.66667 4.64638 5.66667 5Z" stroke="#E9E9EA" stroke-linecap="round" stroke-linejoin="round"/>
  <path d="M13 5C11.4 7.66667 9.4 9 7 9C4.6 9 2.6 7.66667 1 5C2.6 2.33333 4.6 1 7 1C9.4 1 11.4 2.33333 13 5Z" stroke="#E9E9EA" stroke-linecap="round" stroke-linejoin="round"/>
</svg>