<svg xmlns="http://www.w3.org/2000/svg" width="20" height="21" viewBox="0 0 20 21" fill="none">
  <path d="M5.13997 16.2075C5.34623 15.521 5.76828 14.9193 6.34351 14.4916C6.91874 14.064 7.61651 13.8331 8.33331 13.8333H11.6666C12.3844 13.8331 13.083 14.0645 13.6586 14.4932C14.2343 14.9218 14.6562 15.5248 14.8616 16.2125M2.5 10.5C2.5 11.4849 2.69399 12.4602 3.0709 13.3701C3.44781 14.2801 4.00026 15.1069 4.6967 15.8033C5.39314 16.4997 6.21993 17.0522 7.12987 17.4291C8.03982 17.806 9.01509 18 10 18C10.9849 18 11.9602 17.806 12.8701 17.4291C13.7801 17.0522 14.6069 16.4997 15.3033 15.8033C15.9997 15.1069 16.5522 14.2801 16.9291 13.3701C17.306 12.4602 17.5 11.4849 17.5 10.5C17.5 9.51509 17.306 8.53982 16.9291 7.62987C16.5522 6.71993 15.9997 5.89314 15.3033 5.1967C14.6069 4.50026 13.7801 3.94781 12.8701 3.5709C11.9602 3.19399 10.9849 3 10 3C9.01509 3 8.03982 3.19399 7.12987 3.5709C6.21993 3.94781 5.39314 4.50026 4.6967 5.1967C4.00026 5.89314 3.44781 6.71993 3.0709 7.62987C2.69399 8.53982 2.5 9.51509 2.5 10.5ZM7.5 8.83333C7.5 9.49637 7.76339 10.1323 8.23223 10.6011C8.70107 11.0699 9.33696 11.3333 10 11.3333C10.663 11.3333 11.2989 11.0699 11.7678 10.6011C12.2366 10.1323 12.5 9.49637 12.5 8.83333C12.5 8.17029 12.2366 7.53441 11.7678 7.06557C11.2989 6.59673 10.663 6.33333 10 6.33333C9.33696 6.33333 8.70107 6.59673 8.23223 7.06557C7.76339 7.53441 7.5 8.17029 7.5 8.83333Z" stroke="#E9E9EA" stroke-width="1.25" stroke-linecap="round" stroke-linejoin="round"/>
</svg>