<svg xmlns="http://www.w3.org/2000/svg" width="28" height="28" viewBox="0 0 28 28" fill="none">
  <path d="M4.94995 7.0001C4.94995 6.82771 5.01843 6.66238 5.14033 6.54048C5.26223 6.41858 5.42756 6.3501 5.59995 6.3501H22.4C22.5723 6.3501 22.7377 6.41858 22.8596 6.54048C22.9815 6.66238 23.0499 6.82771 23.0499 7.0001C23.0499 7.17249 22.9815 7.33782 22.8596 7.45972C22.7377 7.58162 22.5723 7.6501 22.4 7.6501H5.59995C5.42756 7.6501 5.26223 7.58162 5.14033 7.45972L4.61 7.99005L5.14033 7.45972C5.01843 7.33782 4.94995 7.17249 4.94995 7.0001ZM4.94995 14.0001C4.94995 13.8277 5.01843 13.6624 5.14033 13.5405C5.26223 13.4186 5.42756 13.3501 5.59995 13.3501H22.4C22.5723 13.3501 22.7377 13.4186 22.8596 13.5405C22.9815 13.6624 23.0499 13.8277 23.0499 14.0001C23.0499 14.1725 22.9815 14.3378 22.8596 14.4597C22.7377 14.5816 22.5723 14.6501 22.4 14.6501H5.59995C5.42756 14.6501 5.26223 14.5816 5.14033 14.4597C5.01843 14.3378 4.94995 14.1725 4.94995 14.0001ZM4.94995 21.0001C4.94995 20.8277 5.01843 20.6624 5.14033 20.5405C5.26223 20.4186 5.42756 20.3501 5.59995 20.3501H22.4C22.5723 20.3501 22.7377 20.4186 22.8596 20.5405C22.9815 20.6624 23.0499 20.8277 23.0499 21.0001C23.0499 21.1725 22.9815 21.3378 22.8596 21.4597C22.7377 21.5816 22.5723 21.6501 22.4 21.6501H5.59995C5.42756 21.6501 5.26223 21.5816 5.14033 21.4597C5.01843 21.3378 4.94995 21.1725 4.94995 21.0001Z" fill="#FF0F0F" stroke="#FF0F0F" stroke-width="1.5"/>
</svg>