<svg xmlns="http://www.w3.org/2000/svg" width="17" height="16" viewBox="0 0 17 16" fill="none">
  <path d="M6.45724 4.42843H10.743M6.45724 7.28557H10.743M6.45724 10.1427H9.31438M3.6001 2.99986C3.6001 2.62098 3.75061 2.25762 4.01852 1.98971C4.28643 1.7218 4.64979 1.57129 5.02867 1.57129H12.1715C12.5504 1.57129 12.9138 1.7218 13.1817 1.98971C13.4496 2.25762 13.6001 2.62098 13.6001 2.99986V12.9999C13.6001 13.3787 13.4496 13.7421 13.1817 14.01C12.9138 14.2779 12.5504 14.4284 12.1715 14.4284H5.02867C4.64979 14.4284 4.28643 14.2779 4.01852 14.01C3.75061 13.7421 3.6001 13.3787 3.6001 12.9999V2.99986Z" stroke="#D2D2D5" stroke-width="1.07143" stroke-linecap="round" stroke-linejoin="round"/>
</svg>