<svg xmlns="http://www.w3.org/2000/svg" width="19" height="19" viewBox="0 0 19 19" fill="none">
  <g clip-path="url(#clip0_5347_18064)">
    <path d="M9.5 0.59375C4.58969 0.59375 0.59375 4.58969 0.59375 9.5C0.59375 14.4103 4.58969 18.4062 9.5 18.4062C14.4103 18.4062 18.4062 14.4103 18.4062 9.5C18.4062 4.58969 14.4103 0.59375 9.5 0.59375ZM9.79688 16.3192V15.4375C9.79688 15.2742 9.66328 15.1406 9.5 15.1406C9.33672 15.1406 9.20312 15.2742 9.20312 15.4375V16.3192C5.67328 16.1708 2.82922 13.3267 2.68078 9.79688H3.5625C3.72578 9.79688 3.85938 9.66328 3.85938 9.5C3.85938 9.33672 3.72578 9.20312 3.5625 9.20312H2.68078C2.82922 5.67328 5.67328 2.82922 9.20312 2.68078V3.5625C9.20312 3.72578 9.33672 3.85938 9.5 3.85938C9.66328 3.85938 9.79688 3.72578 9.79688 3.5625V2.68078C13.3267 2.82922 16.1708 5.67328 16.3192 9.20312H15.4375C15.2742 9.20312 15.1406 9.33672 15.1406 9.5C15.1406 9.66328 15.2742 9.79688 15.4375 9.79688H16.3192C16.1708 13.3267 13.3267 16.1708 9.79688 16.3192Z" fill="url(#paint0_linear_5347_18064)"/>
    <path d="M11.875 8.90625H10.0938V5.9375C10.0938 5.61094 9.82656 5.34375 9.5 5.34375C9.17344 5.34375 8.90625 5.61094 8.90625 5.9375V8.90625C8.90625 9.56234 9.43766 10.0938 10.0938 10.0938H11.875C12.2016 10.0938 12.4688 9.82656 12.4688 9.5C12.4688 9.17344 12.2016 8.90625 11.875 8.90625Z" fill="url(#paint1_linear_5347_18064)"/>
  </g>
  <defs>
    <linearGradient id="paint0_linear_5347_18064" x1="9.5" y1="0.59375" x2="9.5" y2="18.4062" gradientUnits="userSpaceOnUse">
      <stop stop-color="#C7C7D1"/>
      <stop offset="1" stop-color="white"/>
    </linearGradient>
    <linearGradient id="paint1_linear_5347_18064" x1="10.6875" y1="5.34375" x2="10.6875" y2="10.0938" gradientUnits="userSpaceOnUse">
      <stop stop-color="#C7C7D1"/>
      <stop offset="1" stop-color="white"/>
    </linearGradient>
    <clipPath id="clip0_5347_18064">
      <rect width="19" height="19" fill="white"/>
    </clipPath>
  </defs>
</svg>