<svg xmlns="http://www.w3.org/2000/svg" width="18" height="18" viewBox="0 0 18 18" fill="none">
  <g clip-path="url(#clip0_5347_18034)">
    <path d="M17.4991 11.9608C17.8232 11.0331 18 10.0369 18 8.99996C18 7.96303 17.8232 6.96679 17.4991 6.0391C17.4913 6.01144 17.4818 5.98431 17.4704 5.95791C16.2204 2.48789 12.8955 0 9.00011 0C5.10469 0 1.77977 2.48789 0.5298 5.95791C0.518447 5.98415 0.508986 6.01124 0.501159 6.0391C0.177078 6.96679 0.000244141 7.96303 0.000244141 8.99996C0.000244141 10.0369 0.177078 11.0331 0.501159 11.9608C0.509072 11.9887 0.518447 12.0159 0.5298 12.042C1.77985 15.5121 5.10469 17.9999 9.00011 17.9999C12.8955 17.9999 16.2204 15.512 17.4704 12.042C17.4818 12.0156 17.4913 11.9885 17.4991 11.9608ZM9.00011 16.7099C8.65737 16.7099 8.10476 16.0896 7.6429 14.7038C7.41996 14.0351 7.24149 13.2663 7.11145 12.4301H10.8888C10.7587 13.2663 10.5803 14.035 10.3574 14.7038C9.89547 16.0896 9.34286 16.7099 9.00011 16.7099ZM6.95491 11.1399C6.8929 10.452 6.86013 9.73439 6.86013 8.99996C6.86013 8.26553 6.8929 7.54787 6.95491 6.85997H11.0452C11.1072 7.54787 11.14 8.26553 11.14 8.99996C11.14 9.73439 11.1072 10.452 11.0452 11.1399H6.95491ZM1.29029 9.00004C1.29029 8.25779 1.39599 7.53979 1.5927 6.86006H5.66091C5.60062 7.56215 5.57 8.2817 5.57 9.00004C5.57 9.71839 5.60053 10.4379 5.66091 11.14H1.5927C1.39163 10.4445 1.28982 9.72405 1.29029 9.00004ZM9.00011 1.29013C9.34286 1.29013 9.89555 1.91043 10.3574 3.2962C10.5803 3.96492 10.7588 4.73366 10.8888 5.56984H7.11136C7.24141 4.73358 7.41988 3.96492 7.64281 3.2962C8.10476 1.91043 8.65737 1.29013 9.00011 1.29013ZM12.3392 6.86006H16.4074C16.6041 7.53979 16.7099 8.25779 16.7099 9.00004C16.7099 9.7423 16.6041 10.4603 16.4074 11.14H12.3392C12.3995 10.4379 12.4301 9.71839 12.4301 9.00004C12.4301 8.2817 12.3995 7.56215 12.3392 6.86006ZM15.9033 5.56993H12.1912C11.9617 3.98762 11.5681 2.56805 11.0158 1.55813C13.157 2.13861 14.9309 3.62062 15.9033 5.56993ZM6.98433 1.55805C6.43207 2.56796 6.0384 3.98754 5.80893 5.56993H2.09679C3.06929 3.62062 4.84314 2.13861 6.98433 1.55805ZM2.09679 12.4301H5.80893C6.0384 14.0124 6.43207 15.4319 6.98433 16.4419C4.84314 15.8614 3.06929 14.3795 2.09679 12.4301ZM11.0158 16.4419C11.5681 15.432 11.9617 14.0125 12.1912 12.4301H15.9033C14.9309 14.3795 13.157 15.8614 11.0158 16.4419Z" fill="url(#paint0_linear_5347_18034)"/>
  </g>
  <defs>
    <linearGradient id="paint0_linear_5347_18034" x1="9.00011" y1="0" x2="9.00011" y2="17.9999" gradientUnits="userSpaceOnUse">
      <stop stop-color="white"/>
      <stop offset="1" stop-color="#9A9A9A"/>
    </linearGradient>
    <clipPath id="clip0_5347_18034">
      <rect width="18" height="18" fill="white"/>
    </clipPath>
  </defs>
</svg>