<svg xmlns="http://www.w3.org/2000/svg" width="20" height="20" viewBox="0 0 20 20" fill="none">
  <path d="M16.25 2.1875H3.75C3.25272 2.1875 2.77581 2.38504 2.42417 2.73667C2.07254 3.08831 1.875 3.56522 1.875 4.0625V15.9375C1.875 16.4348 2.07254 16.9117 2.42417 17.2633C2.77581 17.615 3.25272 17.8125 3.75 17.8125H16.25C16.7473 17.8125 17.2242 17.615 17.5758 17.2633C17.9275 16.9117 18.125 16.4348 18.125 15.9375V4.0625C18.125 3.56522 17.9275 3.08831 17.5758 2.73667C17.2242 2.38504 16.7473 2.1875 16.25 2.1875ZM16.875 15.9375C16.875 16.1033 16.8092 16.2622 16.6919 16.3794C16.5747 16.4967 16.4158 16.5625 16.25 16.5625H3.75C3.58424 16.5625 3.42527 16.4967 3.30806 16.3794C3.19085 16.2622 3.125 16.1033 3.125 15.9375V4.0625C3.125 3.89674 3.19085 3.73777 3.30806 3.62056C3.42527 3.50335 3.58424 3.4375 3.75 3.4375H16.25C16.4158 3.4375 16.5747 3.50335 16.6919 3.62056C16.8092 3.73777 16.875 3.89674 16.875 4.0625V15.9375Z" fill="url(#paint0_linear_5347_18048)"/>
  <path d="M14.0625 9.06246C14.2283 9.06246 14.3872 8.99661 14.5045 8.8794C14.6217 8.76219 14.6875 8.60322 14.6875 8.43746C14.6875 8.2717 14.6217 8.11273 14.5045 7.99552C14.3872 7.87831 14.2283 7.81246 14.0625 7.81246H7.13439L7.94376 7.00308C8.06104 6.88581 8.12692 6.72675 8.12692 6.56089C8.12692 6.39504 8.06104 6.23598 7.94376 6.11871C7.82649 6.00143 7.66743 5.93555 7.50157 5.93555C7.33572 5.93555 7.17666 6.00143 7.05939 6.11871L5.18439 7.99371C5.09644 8.08094 5.03639 8.19234 5.01187 8.31376C4.98736 8.43519 4.99948 8.56116 5.04669 8.67568C5.09391 8.7902 5.17409 8.88811 5.27706 8.95698C5.38003 9.02584 5.50114 9.06256 5.62501 9.06246H14.0625ZM14.6875 11.25H6.25001C6.08425 11.25 5.92528 11.3158 5.80807 11.433C5.69086 11.5502 5.62501 11.7092 5.62501 11.875C5.62501 12.0407 5.69086 12.1997 5.80807 12.3169C5.92528 12.4341 6.08425 12.5 6.25001 12.5H13.1781L12.3688 13.3093C12.2515 13.4266 12.1856 13.5857 12.1856 13.7515C12.1856 13.9174 12.2515 14.0764 12.3688 14.1937C12.486 14.311 12.6451 14.3769 12.8109 14.3769C12.9768 14.3769 13.1359 14.311 13.2531 14.1937L15.1281 12.3187C15.2161 12.2315 15.2761 12.1201 15.3006 11.9987C15.3252 11.8772 15.313 11.7513 15.2658 11.6367C15.2186 11.5222 15.1384 11.4243 15.0355 11.3554C14.9325 11.2866 14.8114 11.2499 14.6875 11.25Z" fill="url(#paint1_linear_5347_18048)"/>
  <defs>
    <linearGradient id="paint0_linear_5347_18048" x1="10" y1="2.1875" x2="10" y2="17.8125" gradientUnits="userSpaceOnUse">
      <stop stop-color="#E9E9EA"/>
      <stop offset="1" stop-color="#C4C4C4"/>
    </linearGradient>
    <linearGradient id="paint1_linear_5347_18048" x1="10.1563" y1="5.93555" x2="10.1563" y2="14.3769" gradientUnits="userSpaceOnUse">
      <stop stop-color="#E9E9EA"/>
      <stop offset="1" stop-color="#C4C4C4"/>
    </linearGradient>
  </defs>
</svg>