<svg xmlns:xlink="http://www.w3.org/1999/xlink" version="1.1" class="highcharts-root" style="font-family: &quot;Lucida Grande&quot;, &quot;Lucida Sans Unicode&quot;, Arial, Helvetica, sans-serif; font-size: 12px;" xmlns="http://www.w3.org/2000/svg" width="397" height="97" viewBox="0 0 397 97" role="img" aria-label=""><desc>Created with Highcharts 10.2.1</desc><defs><clipPath id="highcharts-wtokkxy-1-"><rect x="0" y="0" width="334" height="65" fill="none"></rect></clipPath><clipPath id="highcharts-wtokkxy-17-"><rect x="0" y="0" width="334" height="65" fill="none"></rect></clipPath></defs><rect fill="#FFFFFF" class="highcharts-background" x="0" y="0" width="397" height="97" rx="0" ry="0"></rect><rect fill="none" class="highcharts-plot-background" x="53" y="10" width="334" height="65"></rect><g class="highcharts-grid highcharts-xaxis-grid" data-z-index="1"><path fill="none" stroke-dasharray="none" data-z-index="1" class="highcharts-grid-line" d="M 74.5 10 L 74.5 75" opacity="1"></path><path fill="none" stroke-dasharray="none" data-z-index="1" class="highcharts-grid-line" d="M 97.5 10 L 97.5 75" opacity="1"></path><path fill="none" stroke-dasharray="none" data-z-index="1" class="highcharts-grid-line" d="M 119.5 10 L 119.5 75" opacity="1"></path><path fill="none" stroke-dasharray="none" data-z-index="1" class="highcharts-grid-line" d="M 141.5 10 L 141.5 75" opacity="1"></path><path fill="none" stroke-dasharray="none" data-z-index="1" class="highcharts-grid-line" d="M 163.5 10 L 163.5 75" opacity="1"></path><path fill="none" stroke-dasharray="none" data-z-index="1" class="highcharts-grid-line" d="M 186.5 10 L 186.5 75" opacity="1"></path><path fill="none" stroke-dasharray="none" data-z-index="1" class="highcharts-grid-line" d="M 208.5 10 L 208.5 75" opacity="1"></path><path fill="none" stroke-dasharray="none" data-z-index="1" class="highcharts-grid-line" d="M 230.5 10 L 230.5 75" opacity="1"></path><path fill="none" stroke-dasharray="none" data-z-index="1" class="highcharts-grid-line" d="M 252.5 10 L 252.5 75" opacity="1"></path><path fill="none" stroke-dasharray="none" data-z-index="1" class="highcharts-grid-line" d="M 275.5 10 L 275.5 75" opacity="1"></path><path fill="none" stroke-dasharray="none" data-z-index="1" class="highcharts-grid-line" d="M 297.5 10 L 297.5 75" opacity="1"></path><path fill="none" stroke-dasharray="none" data-z-index="1" class="highcharts-grid-line" d="M 319.5 10 L 319.5 75" opacity="1"></path><path fill="none" stroke-dasharray="none" data-z-index="1" class="highcharts-grid-line" d="M 341.5 10 L 341.5 75" opacity="1"></path><path fill="none" stroke-dasharray="none" data-z-index="1" class="highcharts-grid-line" d="M 364.5 10 L 364.5 75" opacity="1"></path><path fill="none" stroke-dasharray="none" data-z-index="1" class="highcharts-grid-line" d="M 386.5 10 L 386.5 75" opacity="1"></path><path fill="none" stroke-dasharray="none" data-z-index="1" class="highcharts-grid-line" d="M 52.5 10 L 52.5 75" opacity="1"></path></g><g class="highcharts-grid highcharts-yaxis-grid" data-z-index="1"><path fill="none" stroke-dasharray="none" data-z-index="1" class="highcharts-grid-line" d="M 53 75.5 L 387 75.5" opacity="1"></path><path fill="none" stroke-dasharray="none" data-z-index="1" class="highcharts-grid-line" d="M 53 10.5 L 387 10.5" opacity="1"></path></g><rect fill="none" class="highcharts-plot-border" data-z-index="1" x="53" y="10" width="334" height="65"></rect><g class="highcharts-axis highcharts-xaxis" data-z-index="2"><path fill="none" class="highcharts-axis-line" data-z-index="7" d="M 53 75 L 387 75"></path></g><g class="highcharts-axis highcharts-yaxis" data-z-index="2"><path fill="none" class="highcharts-axis-line" data-z-index="7" d="M 53 10 L 53 75"></path></g><g class="highcharts-series-group" data-z-index="3"><g class="highcharts-series highcharts-series-0 highcharts-spline-series" data-z-index="0.1" opacity="1" transform="translate(53,10) scale(1 1)" clip-path="url(#highcharts-wtokkxy-17-)"><path fill="none" d="M 11.133333333333 51.093453124999996 C 11.133333333333 51.093453124999996 24.493333333333197 31.762453124999993 33.4 28.904281249999997 C 42.3066666666664 26.046109375 46.75999999999961 27.587178124999966 55.666666666666 26.046109375 C 64.5733333333328 24.505040624999967 69.0266666666662 22.81556875 77.933333333333 21.1989375 C 86.8399999999998 19.58230625 91.29333333333321 17.962953125 100.2 17.962953125 C 109.106666666664 17.962953125 113.55999999999601 17.962953125 122.46666666666 18.7776875 C 131.373333333328 19.592421875 135.826666666662 23.268009374999995 144.73333333333 27.513078125 C 153.639999999998 31.758146875 158.093333333332 40.00303125 167 40.00303125 C 175.906666666664 40.00303125 180.35999999999598 29.84649687499895 189.26666666666 25.135093750000003 C 198.173333333328 20.423690624998947 202.626666666662 16.446015625 211.53333333333 16.446015625 C 220.439999999998 16.446015625 224.893333333332 18.101687499999855 233.8 18.765500000000003 C 242.70666666666403 19.429312499999853 247.15999999999605 18.765500000000003 256.06666666666 19.765078125000002 C 264.973333333328 20.76465625 269.426666666662 24.600793749999998 278.33333333333 27.702390625 C 287.239999999998 30.8039875 291.693333333332 35.2730625 300.6 35.2730625 C 309.50666666666405 35.2730625 322.86666666666 34.529828125 322.86666666666 34.529828125" class="highcharts-graph" data-z-index="1" stroke="#1E2022" stroke-width="1" stroke-linejoin="round" stroke-linecap="round"></path><path fill="none" d="M 11.133333333333 51.093453124999996 C 11.133333333333 51.093453124999996 24.493333333333197 31.762453124999993 33.4 28.904281249999997 C 42.3066666666664 26.046109375 46.75999999999961 27.587178124999966 55.666666666666 26.046109375 C 64.5733333333328 24.505040624999967 69.0266666666662 22.81556875 77.933333333333 21.1989375 C 86.8399999999998 19.58230625 91.29333333333321 17.962953125 100.2 17.962953125 C 109.106666666664 17.962953125 113.55999999999601 17.962953125 122.46666666666 18.7776875 C 131.373333333328 19.592421875 135.826666666662 23.268009374999995 144.73333333333 27.513078125 C 153.639999999998 31.758146875 158.093333333332 40.00303125 167 40.00303125 C 175.906666666664 40.00303125 180.35999999999598 29.84649687499895 189.26666666666 25.135093750000003 C 198.173333333328 20.423690624998947 202.626666666662 16.446015625 211.53333333333 16.446015625 C 220.439999999998 16.446015625 224.893333333332 18.101687499999855 233.8 18.765500000000003 C 242.70666666666403 19.429312499999853 247.15999999999605 18.765500000000003 256.06666666666 19.765078125000002 C 264.973333333328 20.76465625 269.426666666662 24.600793749999998 278.33333333333 27.702390625 C 287.239999999998 30.8039875 291.693333333332 35.2730625 300.6 35.2730625 C 309.50666666666405 35.2730625 322.86666666666 34.529828125 322.86666666666 34.529828125" data-z-index="2" class="highcharts-tracker-line" stroke-linecap="round" stroke-linejoin="round" stroke="#C0C0C0" stroke-width="21px" style="cursor: pointer;" stroke-opacity="0"></path></g><g class="highcharts-markers highcharts-series-0 highcharts-spline-series highcharts-tracker" data-z-index="0.1" opacity="1" transform="translate(53,10) scale(1 1)" clip-path="none" style="cursor: pointer;"><path fill="#1E2022" d="M 11 51.093453124999996 A 0 0 0 1 1 11 51.093453124999996 Z" class="highcharts-halo highcharts-color-undefined" data-z-index="-1" fill-opacity="0.25" visibility="hidden"></path><path fill="#1E2022" d="M 0 0" stroke="#FFFFFF" stroke-width="1" opacity="1" class="highcharts-point" visibility="hidden"></path></g></g><text x="0" text-anchor="start" class="highcharts-title" data-z-index="4" style="color: rgb(51, 51, 51); font-size: 18px;" y="24" fill="#333333"></text><text x="194" text-anchor="middle" class="highcharts-subtitle" data-z-index="4" style="color: rgb(102, 102, 102);" y="24" fill="#666666"></text><text x="0" text-anchor="start" class="highcharts-caption" data-z-index="4" style="color: rgb(102, 102, 102);" y="109" fill="#666666"></text><g class="highcharts-axis-labels highcharts-xaxis-labels" data-z-index="7"><text x="64.13333333333267" text-anchor="middle" transform="translate(0,0)" style="color: rgb(102, 102, 102); cursor: default; font-size: 11px;" y="94" opacity="1" fill="#666666">Jul 7</text><text x="0" text-anchor="middle" transform="translate(0,0)" style="color: rgb(102, 102, 102); cursor: default; font-size: 11px;" visibility="hidden" fill="#666666">Jul 8</text><text x="0" text-anchor="middle" transform="translate(0,0)" style="color: rgb(102, 102, 102); cursor: default; font-size: 11px;" visibility="hidden" fill="#666666">Jul 9</text><text x="0" text-anchor="middle" transform="translate(0,0)" style="color: rgb(102, 102, 102); cursor: default; font-size: 11px;" visibility="hidden" fill="#666666">Jul 10</text><text x="0" text-anchor="middle" transform="translate(0,0)" style="color: rgb(102, 102, 102); cursor: default; font-size: 11px;" visibility="hidden" fill="#666666">Jul 11</text><text x="0" text-anchor="middle" transform="translate(0,0)" style="color: rgb(102, 102, 102); cursor: default; font-size: 11px;" visibility="hidden" fill="#666666">Jul 12</text><text x="0" text-anchor="middle" transform="translate(0,0)" style="color: rgb(102, 102, 102); cursor: default; font-size: 11px;" visibility="hidden" fill="#666666">Jul 13</text><text x="219.99999999999667" text-anchor="middle" transform="translate(0,0)" style="color: rgb(102, 102, 102); cursor: default; font-size: 11px;" y="94" opacity="1" fill="#666666">Jul 14</text><text x="0" text-anchor="middle" transform="translate(0,0)" style="color: rgb(102, 102, 102); cursor: default; font-size: 11px;" visibility="hidden" fill="#666666">Jul 15</text><text x="0" text-anchor="middle" transform="translate(0,0)" style="color: rgb(102, 102, 102); cursor: default; font-size: 11px;" visibility="hidden" fill="#666666">Jul 16</text><text x="0" text-anchor="middle" transform="translate(0,0)" style="color: rgb(102, 102, 102); cursor: default; font-size: 11px;" visibility="hidden" fill="#666666">Jul 17</text><text x="0" text-anchor="middle" transform="translate(0,0)" style="color: rgb(102, 102, 102); cursor: default; font-size: 11px;" visibility="hidden" fill="#666666">Jul 18</text><text x="0" text-anchor="middle" transform="translate(0,0)" style="color: rgb(102, 102, 102); cursor: default; font-size: 11px;" visibility="hidden" fill="#666666">Jul 19</text><text x="0" text-anchor="middle" transform="translate(0,0)" style="color: rgb(102, 102, 102); cursor: default; font-size: 11px;" visibility="hidden" fill="#666666">Jul 20</text><text x="375.8666666666667" text-anchor="middle" transform="translate(0,0)" style="color: rgb(102, 102, 102); cursor: default; font-size: 11px;" y="94" opacity="1" fill="#666666">Jul 21</text></g><g class="highcharts-axis-labels highcharts-yaxis-labels" data-z-index="7"><text x="38" text-anchor="end" transform="translate(0,0)" style="color: rgb(102, 102, 102); cursor: default; font-size: 11px;" y="79" opacity="1" fill="#666666">960k</text><text x="38" text-anchor="end" transform="translate(0,0)" style="color: rgb(102, 102, 102); cursor: default; font-size: 11px;" y="14" opacity="1" fill="#666666">1 280k</text></g><g class="highcharts-label highcharts-tooltip highcharts-color-undefined" data-z-index="8" transform="translate(80,18)" style="cursor: default; white-space: nowrap; pointer-events: none;" opacity="0" visibility="hidden"><path fill="none" class="highcharts-label-box highcharts-tooltip-box highcharts-shadow" d="M 3.5 0.5 L 157.5 0.5 C 160.5 0.5 160.5 0.5 160.5 3.5 L 160.5 74.5 C 160.5 77.5 160.5 77.5 157.5 77.5 L 3.5 77.5 C 0.5 77.5 0.5 77.5 0.5 74.5 L 0.5 49 L -5.5 43 L 0.5 37 L 0.5 3.5 C 0.5 0.5 0.5 0.5 3.5 0.5" stroke="#000000" stroke-opacity="0.05" stroke-width="5px" transform="translate(1, 1)"></path><path fill="none" class="highcharts-label-box highcharts-tooltip-box highcharts-shadow" d="M 3.5 0.5 L 157.5 0.5 C 160.5 0.5 160.5 0.5 160.5 3.5 L 160.5 74.5 C 160.5 77.5 160.5 77.5 157.5 77.5 L 3.5 77.5 C 0.5 77.5 0.5 77.5 0.5 74.5 L 0.5 49 L -5.5 43 L 0.5 37 L 0.5 3.5 C 0.5 0.5 0.5 0.5 3.5 0.5" stroke="#000000" stroke-opacity="0.1" stroke-width="3px" transform="translate(1, 1)"></path><path fill="none" class="highcharts-label-box highcharts-tooltip-box highcharts-shadow" d="M 3.5 0.5 L 157.5 0.5 C 160.5 0.5 160.5 0.5 160.5 3.5 L 160.5 74.5 C 160.5 77.5 160.5 77.5 157.5 77.5 L 3.5 77.5 C 0.5 77.5 0.5 77.5 0.5 74.5 L 0.5 49 L -5.5 43 L 0.5 37 L 0.5 3.5 C 0.5 0.5 0.5 0.5 3.5 0.5" stroke="#000000" stroke-opacity="0.15" stroke-width="1" transform="translate(1, 1)"></path><path fill="#F7F7F7" class="highcharts-label-box highcharts-tooltip-box" d="M 3.5 0.5 L 157.5 0.5 C 160.5 0.5 160.5 0.5 160.5 3.5 L 160.5 74.5 C 160.5 77.5 160.5 77.5 157.5 77.5 L 3.5 77.5 C 0.5 77.5 0.5 77.5 0.5 74.5 L 0.5 49 L -5.5 43 L 0.5 37 L 0.5 3.5 C 0.5 0.5 0.5 0.5 3.5 0.5" stroke="#1E2022" stroke-width="1" fill-opacity="0.85"></path><text x="8" data-z-index="1" y="18" fill="#333333" style="color: rgb(51, 51, 51); font-size: 12px;"><tspan fill="#333333" style="font-size: 10px;">Sunday, July 7, 2024</tspan><tspan class="highcharts-br" dy="15" x="8" fill="#333333">​</tspan><tspan class="text-dark" fill="#333333"><tspan fill="#333333"><tspan fill="#333333"><tspan fill="#333333" style="padding: 0px;"><tspan class="text-dark" fill="#333333">Transactions: </tspan><tspan fill="#333333" style="font-weight: bold;">1,028,463</tspan><tspan class="highcharts-br" dy="15" x="8" fill="#333333">​</tspan><tspan class="highcharts-br" dy="15" x="8" fill="#333333">​</tspan>Price: $2,931.20</tspan></tspan></tspan></tspan></text></g></svg>